<mxfile host="app.diagrams.net" agent="Mozilla/5.0 (Windows NT 10.0; Win64; x64) AppleWebKit/537.36 (KHTML, like Gecko) Chrome/135.0.0.0 Safari/537.36" version="26.2.12">
  <diagram name="Page-1" id="V7KdssG6JuSi36Pwvfrc">
    <mxGraphModel grid="1" page="1" gridSize="10" guides="1" tooltips="1" connect="1" arrows="1" fold="1" pageScale="1" pageWidth="827" pageHeight="1169" math="0" shadow="0">
      <root>
        <mxCell id="0" />
        <mxCell id="1" parent="0" />
        <mxCell id="2" value="GYM" style="shape=table;startSize=30;container=1;collapsible=0;childLayout=tableLayout;fixedRows=1;rowLines=1;fontStyle=1;align=center;resizeLast=1;fontSize=14;labelBackgroundColor=none;labelBorderColor=none;textShadow=0;" vertex="1" parent="1">
          <mxGeometry x="330" y="117" width="170" height="119" as="geometry" />
        </mxCell>
        <mxCell id="3" style="shape=tableRow;horizontal=0;startSize=0;swimlaneHead=0;swimlaneBody=0;fillColor=none;collapsible=0;dropTarget=0;points=[[0,0.5],[1,0.5]];portConstraint=eastwest;top=0;left=0;right=0;bottom=0;fontSize=14;labelBackgroundColor=none;labelBorderColor=none;textShadow=0;" vertex="1" parent="2">
          <mxGeometry y="30" width="170" height="22" as="geometry" />
        </mxCell>
        <mxCell id="4" value="int" style="shape=partialRectangle;connectable=0;fillColor=none;top=0;left=0;bottom=0;right=0;align=left;spacingLeft=2;overflow=hidden;fontSize=14;labelBackgroundColor=none;labelBorderColor=none;textShadow=0;" vertex="1" parent="3">
          <mxGeometry width="60" height="22" as="geometry">
            <mxRectangle width="60" height="22" as="alternateBounds" />
          </mxGeometry>
        </mxCell>
        <mxCell id="5" value="id" style="shape=partialRectangle;connectable=0;fillColor=none;top=0;left=0;bottom=0;right=0;align=left;spacingLeft=2;overflow=hidden;fontSize=14;labelBackgroundColor=none;labelBorderColor=none;textShadow=0;fontStyle=1" vertex="1" parent="3">
          <mxGeometry x="60" width="70" height="22" as="geometry">
            <mxRectangle width="70" height="22" as="alternateBounds" />
          </mxGeometry>
        </mxCell>
        <mxCell id="6" value="PK" style="shape=partialRectangle;connectable=0;fillColor=none;top=0;left=0;bottom=0;right=0;align=left;spacingLeft=2;overflow=hidden;fontSize=14;labelBackgroundColor=none;labelBorderColor=none;textShadow=0;fontStyle=1" vertex="1" parent="3">
          <mxGeometry x="130" width="40" height="22" as="geometry">
            <mxRectangle width="40" height="22" as="alternateBounds" />
          </mxGeometry>
        </mxCell>
        <mxCell id="7" style="shape=tableRow;horizontal=0;startSize=0;swimlaneHead=0;swimlaneBody=0;fillColor=none;collapsible=0;dropTarget=0;points=[[0,0.5],[1,0.5]];portConstraint=eastwest;top=0;left=0;right=0;bottom=0;fontSize=14;labelBackgroundColor=none;labelBorderColor=none;textShadow=0;" vertex="1" parent="2">
          <mxGeometry y="52" width="170" height="23" as="geometry" />
        </mxCell>
        <mxCell id="8" value="string" style="shape=partialRectangle;connectable=0;fillColor=none;top=0;left=0;bottom=0;right=0;align=left;spacingLeft=2;overflow=hidden;fontSize=14;labelBackgroundColor=none;labelBorderColor=none;textShadow=0;" vertex="1" parent="7">
          <mxGeometry width="60" height="23" as="geometry">
            <mxRectangle width="60" height="23" as="alternateBounds" />
          </mxGeometry>
        </mxCell>
        <mxCell id="9" value="name" style="shape=partialRectangle;connectable=0;fillColor=none;top=0;left=0;bottom=0;right=0;align=left;spacingLeft=2;overflow=hidden;fontSize=14;labelBackgroundColor=none;labelBorderColor=none;textShadow=0;" vertex="1" parent="7">
          <mxGeometry x="60" width="70" height="23" as="geometry">
            <mxRectangle width="70" height="23" as="alternateBounds" />
          </mxGeometry>
        </mxCell>
        <mxCell id="10" value="" style="shape=partialRectangle;connectable=0;fillColor=none;top=0;left=0;bottom=0;right=0;align=left;spacingLeft=2;overflow=hidden;fontSize=14;labelBackgroundColor=none;labelBorderColor=none;textShadow=0;" vertex="1" parent="7">
          <mxGeometry x="130" width="40" height="23" as="geometry">
            <mxRectangle width="40" height="23" as="alternateBounds" />
          </mxGeometry>
        </mxCell>
        <mxCell id="11" style="shape=tableRow;horizontal=0;startSize=0;swimlaneHead=0;swimlaneBody=0;fillColor=none;collapsible=0;dropTarget=0;points=[[0,0.5],[1,0.5]];portConstraint=eastwest;top=0;left=0;right=0;bottom=0;fontSize=14;labelBackgroundColor=none;labelBorderColor=none;textShadow=0;" vertex="1" parent="2">
          <mxGeometry y="75" width="170" height="22" as="geometry" />
        </mxCell>
        <mxCell id="12" value="string" style="shape=partialRectangle;connectable=0;fillColor=none;top=0;left=0;bottom=0;right=0;align=left;spacingLeft=2;overflow=hidden;fontSize=14;labelBackgroundColor=none;labelBorderColor=none;textShadow=0;" vertex="1" parent="11">
          <mxGeometry width="60" height="22" as="geometry">
            <mxRectangle width="60" height="22" as="alternateBounds" />
          </mxGeometry>
        </mxCell>
        <mxCell id="13" value="address" style="shape=partialRectangle;connectable=0;fillColor=none;top=0;left=0;bottom=0;right=0;align=left;spacingLeft=2;overflow=hidden;fontSize=14;labelBackgroundColor=none;labelBorderColor=none;textShadow=0;" vertex="1" parent="11">
          <mxGeometry x="60" width="70" height="22" as="geometry">
            <mxRectangle width="70" height="22" as="alternateBounds" />
          </mxGeometry>
        </mxCell>
        <mxCell id="14" value="" style="shape=partialRectangle;connectable=0;fillColor=none;top=0;left=0;bottom=0;right=0;align=left;spacingLeft=2;overflow=hidden;fontSize=14;labelBackgroundColor=none;labelBorderColor=none;textShadow=0;" vertex="1" parent="11">
          <mxGeometry x="130" width="40" height="22" as="geometry">
            <mxRectangle width="40" height="22" as="alternateBounds" />
          </mxGeometry>
        </mxCell>
        <mxCell id="15" style="shape=tableRow;horizontal=0;startSize=0;swimlaneHead=0;swimlaneBody=0;fillColor=none;collapsible=0;dropTarget=0;points=[[0,0.5],[1,0.5]];portConstraint=eastwest;top=0;left=0;right=0;bottom=0;fontSize=14;labelBackgroundColor=none;labelBorderColor=none;textShadow=0;" vertex="1" parent="2">
          <mxGeometry y="97" width="170" height="22" as="geometry" />
        </mxCell>
        <mxCell id="16" value="string" style="shape=partialRectangle;connectable=0;fillColor=none;top=0;left=0;bottom=0;right=0;align=left;spacingLeft=2;overflow=hidden;fontSize=14;labelBackgroundColor=none;labelBorderColor=none;textShadow=0;" vertex="1" parent="15">
          <mxGeometry width="60" height="22" as="geometry">
            <mxRectangle width="60" height="22" as="alternateBounds" />
          </mxGeometry>
        </mxCell>
        <mxCell id="17" value="phone" style="shape=partialRectangle;connectable=0;fillColor=none;top=0;left=0;bottom=0;right=0;align=left;spacingLeft=2;overflow=hidden;fontSize=14;labelBackgroundColor=none;labelBorderColor=none;textShadow=0;" vertex="1" parent="15">
          <mxGeometry x="60" width="70" height="22" as="geometry">
            <mxRectangle width="70" height="22" as="alternateBounds" />
          </mxGeometry>
        </mxCell>
        <mxCell id="18" value="" style="shape=partialRectangle;connectable=0;fillColor=none;top=0;left=0;bottom=0;right=0;align=left;spacingLeft=2;overflow=hidden;fontSize=14;labelBackgroundColor=none;labelBorderColor=none;textShadow=0;" vertex="1" parent="15">
          <mxGeometry x="130" width="40" height="22" as="geometry">
            <mxRectangle width="40" height="22" as="alternateBounds" />
          </mxGeometry>
        </mxCell>
        <mxCell id="19" value="MEMBER" style="shape=table;startSize=30;container=1;collapsible=0;childLayout=tableLayout;fixedRows=1;rowLines=1;fontStyle=1;align=center;resizeLast=1;fontSize=14;labelBackgroundColor=none;labelBorderColor=none;textShadow=0;perimeterSpacing=1;" vertex="1" parent="1">
          <mxGeometry x="30" y="287" width="180" height="184" as="geometry" />
        </mxCell>
        <mxCell id="20" style="shape=tableRow;horizontal=0;startSize=0;swimlaneHead=0;swimlaneBody=0;fillColor=none;collapsible=0;dropTarget=0;points=[[0,0.5],[1,0.5]];portConstraint=eastwest;top=0;left=0;right=0;bottom=0;fontSize=14;labelBackgroundColor=none;labelBorderColor=none;textShadow=0;perimeterSpacing=1;" vertex="1" parent="19">
          <mxGeometry y="30" width="180" height="22" as="geometry" />
        </mxCell>
        <mxCell id="21" value="int" style="shape=partialRectangle;connectable=0;fillColor=none;top=0;left=0;bottom=0;right=0;align=left;spacingLeft=2;overflow=hidden;fontSize=14;labelBackgroundColor=none;labelBorderColor=none;textShadow=0;perimeterSpacing=1;" vertex="1" parent="20">
          <mxGeometry width="50" height="22" as="geometry">
            <mxRectangle width="50" height="22" as="alternateBounds" />
          </mxGeometry>
        </mxCell>
        <mxCell id="22" value="id" style="shape=partialRectangle;connectable=0;fillColor=none;top=0;left=0;bottom=0;right=0;align=left;spacingLeft=2;overflow=hidden;fontSize=14;labelBackgroundColor=none;labelBorderColor=none;textShadow=0;perimeterSpacing=1;" vertex="1" parent="20">
          <mxGeometry x="50" width="80" height="22" as="geometry">
            <mxRectangle width="80" height="22" as="alternateBounds" />
          </mxGeometry>
        </mxCell>
        <mxCell id="23" value="PK" style="shape=partialRectangle;connectable=0;fillColor=none;top=0;left=0;bottom=0;right=0;align=left;spacingLeft=2;overflow=hidden;fontSize=14;labelBackgroundColor=none;labelBorderColor=none;textShadow=0;perimeterSpacing=1;fontStyle=1" vertex="1" parent="20">
          <mxGeometry x="130" width="50" height="22" as="geometry">
            <mxRectangle width="50" height="22" as="alternateBounds" />
          </mxGeometry>
        </mxCell>
        <mxCell id="24" style="shape=tableRow;horizontal=0;startSize=0;swimlaneHead=0;swimlaneBody=0;fillColor=none;collapsible=0;dropTarget=0;points=[[0,0.5],[1,0.5]];portConstraint=eastwest;top=0;left=0;right=0;bottom=0;fontSize=14;labelBackgroundColor=none;labelBorderColor=none;textShadow=0;perimeterSpacing=1;" vertex="1" parent="19">
          <mxGeometry y="52" width="180" height="22" as="geometry" />
        </mxCell>
        <mxCell id="25" value="string" style="shape=partialRectangle;connectable=0;fillColor=none;top=0;left=0;bottom=0;right=0;align=left;spacingLeft=2;overflow=hidden;fontSize=14;labelBackgroundColor=none;labelBorderColor=none;textShadow=0;perimeterSpacing=1;" vertex="1" parent="24">
          <mxGeometry width="50" height="22" as="geometry">
            <mxRectangle width="50" height="22" as="alternateBounds" />
          </mxGeometry>
        </mxCell>
        <mxCell id="26" value="first_name" style="shape=partialRectangle;connectable=0;fillColor=none;top=0;left=0;bottom=0;right=0;align=left;spacingLeft=2;overflow=hidden;fontSize=14;labelBackgroundColor=none;labelBorderColor=none;textShadow=0;perimeterSpacing=1;" vertex="1" parent="24">
          <mxGeometry x="50" width="80" height="22" as="geometry">
            <mxRectangle width="80" height="22" as="alternateBounds" />
          </mxGeometry>
        </mxCell>
        <mxCell id="27" value="" style="shape=partialRectangle;connectable=0;fillColor=none;top=0;left=0;bottom=0;right=0;align=left;spacingLeft=2;overflow=hidden;fontSize=14;labelBackgroundColor=none;labelBorderColor=none;textShadow=0;perimeterSpacing=1;" vertex="1" parent="24">
          <mxGeometry x="130" width="50" height="22" as="geometry">
            <mxRectangle width="50" height="22" as="alternateBounds" />
          </mxGeometry>
        </mxCell>
        <mxCell id="28" style="shape=tableRow;horizontal=0;startSize=0;swimlaneHead=0;swimlaneBody=0;fillColor=none;collapsible=0;dropTarget=0;points=[[0,0.5],[1,0.5]];portConstraint=eastwest;top=0;left=0;right=0;bottom=0;fontSize=14;labelBackgroundColor=none;labelBorderColor=none;textShadow=0;perimeterSpacing=1;" vertex="1" parent="19">
          <mxGeometry y="74" width="180" height="22" as="geometry" />
        </mxCell>
        <mxCell id="29" value="string" style="shape=partialRectangle;connectable=0;fillColor=none;top=0;left=0;bottom=0;right=0;align=left;spacingLeft=2;overflow=hidden;fontSize=14;labelBackgroundColor=none;labelBorderColor=none;textShadow=0;perimeterSpacing=1;" vertex="1" parent="28">
          <mxGeometry width="50" height="22" as="geometry">
            <mxRectangle width="50" height="22" as="alternateBounds" />
          </mxGeometry>
        </mxCell>
        <mxCell id="30" value="last_name" style="shape=partialRectangle;connectable=0;fillColor=none;top=0;left=0;bottom=0;right=0;align=left;spacingLeft=2;overflow=hidden;fontSize=14;labelBackgroundColor=none;labelBorderColor=none;textShadow=0;perimeterSpacing=1;" vertex="1" parent="28">
          <mxGeometry x="50" width="80" height="22" as="geometry">
            <mxRectangle width="80" height="22" as="alternateBounds" />
          </mxGeometry>
        </mxCell>
        <mxCell id="31" value="" style="shape=partialRectangle;connectable=0;fillColor=none;top=0;left=0;bottom=0;right=0;align=left;spacingLeft=2;overflow=hidden;fontSize=14;labelBackgroundColor=none;labelBorderColor=none;textShadow=0;perimeterSpacing=1;" vertex="1" parent="28">
          <mxGeometry x="130" width="50" height="22" as="geometry">
            <mxRectangle width="50" height="22" as="alternateBounds" />
          </mxGeometry>
        </mxCell>
        <mxCell id="32" style="shape=tableRow;horizontal=0;startSize=0;swimlaneHead=0;swimlaneBody=0;fillColor=none;collapsible=0;dropTarget=0;points=[[0,0.5],[1,0.5]];portConstraint=eastwest;top=0;left=0;right=0;bottom=0;fontSize=14;labelBackgroundColor=none;labelBorderColor=none;textShadow=0;perimeterSpacing=1;" vertex="1" parent="19">
          <mxGeometry y="96" width="180" height="22" as="geometry" />
        </mxCell>
        <mxCell id="33" value="string" style="shape=partialRectangle;connectable=0;fillColor=none;top=0;left=0;bottom=0;right=0;align=left;spacingLeft=2;overflow=hidden;fontSize=14;labelBackgroundColor=none;labelBorderColor=none;textShadow=0;perimeterSpacing=1;" vertex="1" parent="32">
          <mxGeometry width="50" height="22" as="geometry">
            <mxRectangle width="50" height="22" as="alternateBounds" />
          </mxGeometry>
        </mxCell>
        <mxCell id="34" value="address" style="shape=partialRectangle;connectable=0;fillColor=none;top=0;left=0;bottom=0;right=0;align=left;spacingLeft=2;overflow=hidden;fontSize=14;labelBackgroundColor=none;labelBorderColor=none;textShadow=0;perimeterSpacing=1;" vertex="1" parent="32">
          <mxGeometry x="50" width="80" height="22" as="geometry">
            <mxRectangle width="80" height="22" as="alternateBounds" />
          </mxGeometry>
        </mxCell>
        <mxCell id="35" value="" style="shape=partialRectangle;connectable=0;fillColor=none;top=0;left=0;bottom=0;right=0;align=left;spacingLeft=2;overflow=hidden;fontSize=14;labelBackgroundColor=none;labelBorderColor=none;textShadow=0;perimeterSpacing=1;" vertex="1" parent="32">
          <mxGeometry x="130" width="50" height="22" as="geometry">
            <mxRectangle width="50" height="22" as="alternateBounds" />
          </mxGeometry>
        </mxCell>
        <mxCell id="36" style="shape=tableRow;horizontal=0;startSize=0;swimlaneHead=0;swimlaneBody=0;fillColor=none;collapsible=0;dropTarget=0;points=[[0,0.5],[1,0.5]];portConstraint=eastwest;top=0;left=0;right=0;bottom=0;fontSize=14;labelBackgroundColor=none;labelBorderColor=none;textShadow=0;perimeterSpacing=1;" vertex="1" parent="19">
          <mxGeometry y="118" width="180" height="22" as="geometry" />
        </mxCell>
        <mxCell id="37" value="date" style="shape=partialRectangle;connectable=0;fillColor=none;top=0;left=0;bottom=0;right=0;align=left;spacingLeft=2;overflow=hidden;fontSize=14;labelBackgroundColor=none;labelBorderColor=none;textShadow=0;perimeterSpacing=1;" vertex="1" parent="36">
          <mxGeometry width="50" height="22" as="geometry">
            <mxRectangle width="50" height="22" as="alternateBounds" />
          </mxGeometry>
        </mxCell>
        <mxCell id="38" value="birth_date" style="shape=partialRectangle;connectable=0;fillColor=none;top=0;left=0;bottom=0;right=0;align=left;spacingLeft=2;overflow=hidden;fontSize=14;labelBackgroundColor=none;labelBorderColor=none;textShadow=0;perimeterSpacing=1;" vertex="1" parent="36">
          <mxGeometry x="50" width="80" height="22" as="geometry">
            <mxRectangle width="80" height="22" as="alternateBounds" />
          </mxGeometry>
        </mxCell>
        <mxCell id="39" value="" style="shape=partialRectangle;connectable=0;fillColor=none;top=0;left=0;bottom=0;right=0;align=left;spacingLeft=2;overflow=hidden;fontSize=14;labelBackgroundColor=none;labelBorderColor=none;textShadow=0;perimeterSpacing=1;" vertex="1" parent="36">
          <mxGeometry x="130" width="50" height="22" as="geometry">
            <mxRectangle width="50" height="22" as="alternateBounds" />
          </mxGeometry>
        </mxCell>
        <mxCell id="40" style="shape=tableRow;horizontal=0;startSize=0;swimlaneHead=0;swimlaneBody=0;fillColor=none;collapsible=0;dropTarget=0;points=[[0,0.5],[1,0.5]];portConstraint=eastwest;top=0;left=0;right=0;bottom=0;fontSize=14;labelBackgroundColor=none;labelBorderColor=none;textShadow=0;perimeterSpacing=1;" vertex="1" parent="19">
          <mxGeometry y="140" width="180" height="22" as="geometry" />
        </mxCell>
        <mxCell id="41" value="string" style="shape=partialRectangle;connectable=0;fillColor=none;top=0;left=0;bottom=0;right=0;align=left;spacingLeft=2;overflow=hidden;fontSize=14;labelBackgroundColor=none;labelBorderColor=none;textShadow=0;perimeterSpacing=1;" vertex="1" parent="40">
          <mxGeometry width="50" height="22" as="geometry">
            <mxRectangle width="50" height="22" as="alternateBounds" />
          </mxGeometry>
        </mxCell>
        <mxCell id="42" value="gender" style="shape=partialRectangle;connectable=0;fillColor=none;top=0;left=0;bottom=0;right=0;align=left;spacingLeft=2;overflow=hidden;fontSize=14;labelBackgroundColor=none;labelBorderColor=none;textShadow=0;perimeterSpacing=1;" vertex="1" parent="40">
          <mxGeometry x="50" width="80" height="22" as="geometry">
            <mxRectangle width="80" height="22" as="alternateBounds" />
          </mxGeometry>
        </mxCell>
        <mxCell id="43" value="" style="shape=partialRectangle;connectable=0;fillColor=none;top=0;left=0;bottom=0;right=0;align=left;spacingLeft=2;overflow=hidden;fontSize=14;labelBackgroundColor=none;labelBorderColor=none;textShadow=0;perimeterSpacing=1;" vertex="1" parent="40">
          <mxGeometry x="130" width="50" height="22" as="geometry">
            <mxRectangle width="50" height="22" as="alternateBounds" />
          </mxGeometry>
        </mxCell>
        <mxCell id="44" style="shape=tableRow;horizontal=0;startSize=0;swimlaneHead=0;swimlaneBody=0;fillColor=none;collapsible=0;dropTarget=0;points=[[0,0.5],[1,0.5]];portConstraint=eastwest;top=0;left=0;right=0;bottom=0;fontSize=14;labelBackgroundColor=none;labelBorderColor=none;textShadow=0;perimeterSpacing=1;" vertex="1" parent="19">
          <mxGeometry y="162" width="180" height="22" as="geometry" />
        </mxCell>
        <mxCell id="45" value="int" style="shape=partialRectangle;connectable=0;fillColor=none;top=0;left=0;bottom=0;right=0;align=left;spacingLeft=2;overflow=hidden;fontSize=14;labelBackgroundColor=none;labelBorderColor=none;textShadow=0;perimeterSpacing=1;" vertex="1" parent="44">
          <mxGeometry width="50" height="22" as="geometry">
            <mxRectangle width="50" height="22" as="alternateBounds" />
          </mxGeometry>
        </mxCell>
        <mxCell id="46" value="gym_id" style="shape=partialRectangle;connectable=0;fillColor=none;top=0;left=0;bottom=0;right=0;align=left;spacingLeft=2;overflow=hidden;fontSize=14;labelBackgroundColor=none;labelBorderColor=none;textShadow=0;perimeterSpacing=1;" vertex="1" parent="44">
          <mxGeometry x="50" width="80" height="22" as="geometry">
            <mxRectangle width="80" height="22" as="alternateBounds" />
          </mxGeometry>
        </mxCell>
        <mxCell id="47" value="FK" style="shape=partialRectangle;connectable=0;fillColor=none;top=0;left=0;bottom=0;right=0;align=left;spacingLeft=2;overflow=hidden;fontSize=14;labelBackgroundColor=none;labelBorderColor=none;textShadow=0;perimeterSpacing=1;fontStyle=1" vertex="1" parent="44">
          <mxGeometry x="130" width="50" height="22" as="geometry">
            <mxRectangle width="50" height="22" as="alternateBounds" />
          </mxGeometry>
        </mxCell>
        <mxCell id="48" value="COACH" style="shape=table;startSize=30;container=1;collapsible=0;childLayout=tableLayout;fixedRows=1;rowLines=1;fontStyle=1;align=center;resizeLast=1;fontSize=14;labelBackgroundColor=none;labelBorderColor=none;textShadow=0;" vertex="1" parent="1">
          <mxGeometry x="280" y="287" width="176" height="142" as="geometry" />
        </mxCell>
        <mxCell id="49" style="shape=tableRow;horizontal=0;startSize=0;swimlaneHead=0;swimlaneBody=0;fillColor=none;collapsible=0;dropTarget=0;points=[[0,0.5],[1,0.5]];portConstraint=eastwest;top=0;left=0;right=0;bottom=0;fontSize=14;labelBackgroundColor=none;labelBorderColor=none;textShadow=0;" vertex="1" parent="48">
          <mxGeometry y="30" width="176" height="24" as="geometry" />
        </mxCell>
        <mxCell id="50" value="int" style="shape=partialRectangle;connectable=0;fillColor=none;top=0;left=0;bottom=0;right=0;align=left;spacingLeft=2;overflow=hidden;fontSize=14;labelBackgroundColor=none;labelBorderColor=none;textShadow=0;" vertex="1" parent="49">
          <mxGeometry width="46" height="24" as="geometry">
            <mxRectangle width="46" height="24" as="alternateBounds" />
          </mxGeometry>
        </mxCell>
        <mxCell id="51" value="id" style="shape=partialRectangle;connectable=0;fillColor=none;top=0;left=0;bottom=0;right=0;align=left;spacingLeft=2;overflow=hidden;fontSize=14;labelBackgroundColor=none;labelBorderColor=none;textShadow=0;fontStyle=1" vertex="1" parent="49">
          <mxGeometry x="46" width="80" height="24" as="geometry">
            <mxRectangle width="80" height="24" as="alternateBounds" />
          </mxGeometry>
        </mxCell>
        <mxCell id="52" value="PK" style="shape=partialRectangle;connectable=0;fillColor=none;top=0;left=0;bottom=0;right=0;align=left;spacingLeft=2;overflow=hidden;fontSize=14;labelBackgroundColor=none;labelBorderColor=none;textShadow=0;fontStyle=1" vertex="1" parent="49">
          <mxGeometry x="126" width="50" height="24" as="geometry">
            <mxRectangle width="50" height="24" as="alternateBounds" />
          </mxGeometry>
        </mxCell>
        <mxCell id="53" style="shape=tableRow;horizontal=0;startSize=0;swimlaneHead=0;swimlaneBody=0;fillColor=none;collapsible=0;dropTarget=0;points=[[0,0.5],[1,0.5]];portConstraint=eastwest;top=0;left=0;right=0;bottom=0;fontSize=14;labelBackgroundColor=none;labelBorderColor=none;textShadow=0;" vertex="1" parent="48">
          <mxGeometry y="54" width="176" height="22" as="geometry" />
        </mxCell>
        <mxCell id="54" value="string" style="shape=partialRectangle;connectable=0;fillColor=none;top=0;left=0;bottom=0;right=0;align=left;spacingLeft=2;overflow=hidden;fontSize=14;labelBackgroundColor=none;labelBorderColor=none;textShadow=0;" vertex="1" parent="53">
          <mxGeometry width="46" height="22" as="geometry">
            <mxRectangle width="46" height="22" as="alternateBounds" />
          </mxGeometry>
        </mxCell>
        <mxCell id="55" value="first_name" style="shape=partialRectangle;connectable=0;fillColor=none;top=0;left=0;bottom=0;right=0;align=left;spacingLeft=2;overflow=hidden;fontSize=14;labelBackgroundColor=none;labelBorderColor=none;textShadow=0;" vertex="1" parent="53">
          <mxGeometry x="46" width="80" height="22" as="geometry">
            <mxRectangle width="80" height="22" as="alternateBounds" />
          </mxGeometry>
        </mxCell>
        <mxCell id="56" value="" style="shape=partialRectangle;connectable=0;fillColor=none;top=0;left=0;bottom=0;right=0;align=left;spacingLeft=2;overflow=hidden;fontSize=14;labelBackgroundColor=none;labelBorderColor=none;textShadow=0;" vertex="1" parent="53">
          <mxGeometry x="126" width="50" height="22" as="geometry">
            <mxRectangle width="50" height="22" as="alternateBounds" />
          </mxGeometry>
        </mxCell>
        <mxCell id="57" style="shape=tableRow;horizontal=0;startSize=0;swimlaneHead=0;swimlaneBody=0;fillColor=none;collapsible=0;dropTarget=0;points=[[0,0.5],[1,0.5]];portConstraint=eastwest;top=0;left=0;right=0;bottom=0;fontSize=14;labelBackgroundColor=none;labelBorderColor=none;textShadow=0;" vertex="1" parent="48">
          <mxGeometry y="76" width="176" height="22" as="geometry" />
        </mxCell>
        <mxCell id="58" value="string" style="shape=partialRectangle;connectable=0;fillColor=none;top=0;left=0;bottom=0;right=0;align=left;spacingLeft=2;overflow=hidden;fontSize=14;labelBackgroundColor=none;labelBorderColor=none;textShadow=0;" vertex="1" parent="57">
          <mxGeometry width="46" height="22" as="geometry">
            <mxRectangle width="46" height="22" as="alternateBounds" />
          </mxGeometry>
        </mxCell>
        <mxCell id="59" value="last_name" style="shape=partialRectangle;connectable=0;fillColor=none;top=0;left=0;bottom=0;right=0;align=left;spacingLeft=2;overflow=hidden;fontSize=14;labelBackgroundColor=none;labelBorderColor=none;textShadow=0;" vertex="1" parent="57">
          <mxGeometry x="46" width="80" height="22" as="geometry">
            <mxRectangle width="80" height="22" as="alternateBounds" />
          </mxGeometry>
        </mxCell>
        <mxCell id="60" value="" style="shape=partialRectangle;connectable=0;fillColor=none;top=0;left=0;bottom=0;right=0;align=left;spacingLeft=2;overflow=hidden;fontSize=14;labelBackgroundColor=none;labelBorderColor=none;textShadow=0;" vertex="1" parent="57">
          <mxGeometry x="126" width="50" height="22" as="geometry">
            <mxRectangle width="50" height="22" as="alternateBounds" />
          </mxGeometry>
        </mxCell>
        <mxCell id="61" style="shape=tableRow;horizontal=0;startSize=0;swimlaneHead=0;swimlaneBody=0;fillColor=none;collapsible=0;dropTarget=0;points=[[0,0.5],[1,0.5]];portConstraint=eastwest;top=0;left=0;right=0;bottom=0;fontSize=14;labelBackgroundColor=none;labelBorderColor=none;textShadow=0;" vertex="1" parent="48">
          <mxGeometry y="98" width="176" height="22" as="geometry" />
        </mxCell>
        <mxCell id="62" value="int" style="shape=partialRectangle;connectable=0;fillColor=none;top=0;left=0;bottom=0;right=0;align=left;spacingLeft=2;overflow=hidden;fontSize=14;labelBackgroundColor=none;labelBorderColor=none;textShadow=0;" vertex="1" parent="61">
          <mxGeometry width="46" height="22" as="geometry">
            <mxRectangle width="46" height="22" as="alternateBounds" />
          </mxGeometry>
        </mxCell>
        <mxCell id="63" value="age" style="shape=partialRectangle;connectable=0;fillColor=none;top=0;left=0;bottom=0;right=0;align=left;spacingLeft=2;overflow=hidden;fontSize=14;labelBackgroundColor=none;labelBorderColor=none;textShadow=0;" vertex="1" parent="61">
          <mxGeometry x="46" width="80" height="22" as="geometry">
            <mxRectangle width="80" height="22" as="alternateBounds" />
          </mxGeometry>
        </mxCell>
        <mxCell id="64" value="" style="shape=partialRectangle;connectable=0;fillColor=none;top=0;left=0;bottom=0;right=0;align=left;spacingLeft=2;overflow=hidden;fontSize=14;labelBackgroundColor=none;labelBorderColor=none;textShadow=0;" vertex="1" parent="61">
          <mxGeometry x="126" width="50" height="22" as="geometry">
            <mxRectangle width="50" height="22" as="alternateBounds" />
          </mxGeometry>
        </mxCell>
        <mxCell id="65" style="shape=tableRow;horizontal=0;startSize=0;swimlaneHead=0;swimlaneBody=0;fillColor=none;collapsible=0;dropTarget=0;points=[[0,0.5],[1,0.5]];portConstraint=eastwest;top=0;left=0;right=0;bottom=0;fontSize=14;labelBackgroundColor=none;labelBorderColor=none;textShadow=0;" vertex="1" parent="48">
          <mxGeometry y="120" width="176" height="22" as="geometry" />
        </mxCell>
        <mxCell id="66" value="string" style="shape=partialRectangle;connectable=0;fillColor=none;top=0;left=0;bottom=0;right=0;align=left;spacingLeft=2;overflow=hidden;fontSize=14;labelBackgroundColor=none;labelBorderColor=none;textShadow=0;" vertex="1" parent="65">
          <mxGeometry width="46" height="22" as="geometry">
            <mxRectangle width="46" height="22" as="alternateBounds" />
          </mxGeometry>
        </mxCell>
        <mxCell id="67" value="specialty" style="shape=partialRectangle;connectable=0;fillColor=none;top=0;left=0;bottom=0;right=0;align=left;spacingLeft=2;overflow=hidden;fontSize=14;labelBackgroundColor=none;labelBorderColor=none;textShadow=0;" vertex="1" parent="65">
          <mxGeometry x="46" width="80" height="22" as="geometry">
            <mxRectangle width="80" height="22" as="alternateBounds" />
          </mxGeometry>
        </mxCell>
        <mxCell id="68" value="" style="shape=partialRectangle;connectable=0;fillColor=none;top=0;left=0;bottom=0;right=0;align=left;spacingLeft=2;overflow=hidden;fontSize=14;labelBackgroundColor=none;labelBorderColor=none;textShadow=0;" vertex="1" parent="65">
          <mxGeometry x="126" width="50" height="22" as="geometry">
            <mxRectangle width="50" height="22" as="alternateBounds" />
          </mxGeometry>
        </mxCell>
        <mxCell id="69" value="SESSION" style="shape=table;startSize=30;container=1;collapsible=0;childLayout=tableLayout;fixedRows=1;rowLines=1;fontStyle=1;align=center;resizeLast=1;fontSize=14;labelBackgroundColor=none;labelBorderColor=none;textShadow=0;" vertex="1" parent="1">
          <mxGeometry x="600" y="317" width="190" height="150" as="geometry" />
        </mxCell>
        <mxCell id="70" style="shape=tableRow;horizontal=0;startSize=0;swimlaneHead=0;swimlaneBody=0;fillColor=none;collapsible=0;dropTarget=0;points=[[0,0.5],[1,0.5]];portConstraint=eastwest;top=0;left=0;right=0;bottom=0;fontSize=14;labelBackgroundColor=none;labelBorderColor=none;textShadow=0;" vertex="1" parent="69">
          <mxGeometry y="30" width="190" height="22" as="geometry" />
        </mxCell>
        <mxCell id="71" value="int" style="shape=partialRectangle;connectable=0;fillColor=none;top=0;left=0;bottom=0;right=0;align=left;spacingLeft=2;overflow=hidden;fontSize=14;labelBackgroundColor=none;labelBorderColor=none;textShadow=0;" vertex="1" parent="70">
          <mxGeometry width="50" height="22" as="geometry">
            <mxRectangle width="50" height="22" as="alternateBounds" />
          </mxGeometry>
        </mxCell>
        <mxCell id="72" value="id" style="shape=partialRectangle;connectable=0;fillColor=none;top=0;left=0;bottom=0;right=0;align=left;spacingLeft=2;overflow=hidden;fontSize=14;labelBackgroundColor=none;labelBorderColor=none;textShadow=0;fontStyle=1" vertex="1" parent="70">
          <mxGeometry x="50" width="100" height="22" as="geometry">
            <mxRectangle width="100" height="22" as="alternateBounds" />
          </mxGeometry>
        </mxCell>
        <mxCell id="73" value="PK" style="shape=partialRectangle;connectable=0;fillColor=none;top=0;left=0;bottom=0;right=0;align=left;spacingLeft=2;overflow=hidden;fontSize=14;labelBackgroundColor=none;labelBorderColor=none;textShadow=0;fontStyle=1" vertex="1" parent="70">
          <mxGeometry x="150" width="40" height="22" as="geometry">
            <mxRectangle width="40" height="22" as="alternateBounds" />
          </mxGeometry>
        </mxCell>
        <mxCell id="74" style="shape=tableRow;horizontal=0;startSize=0;swimlaneHead=0;swimlaneBody=0;fillColor=none;collapsible=0;dropTarget=0;points=[[0,0.5],[1,0.5]];portConstraint=eastwest;top=0;left=0;right=0;bottom=0;fontSize=14;labelBackgroundColor=none;labelBorderColor=none;textShadow=0;" vertex="1" parent="69">
          <mxGeometry y="52" width="190" height="22" as="geometry" />
        </mxCell>
        <mxCell id="75" value="string" style="shape=partialRectangle;connectable=0;fillColor=none;top=0;left=0;bottom=0;right=0;align=left;spacingLeft=2;overflow=hidden;fontSize=14;labelBackgroundColor=none;labelBorderColor=none;textShadow=0;" vertex="1" parent="74">
          <mxGeometry width="50" height="22" as="geometry">
            <mxRectangle width="50" height="22" as="alternateBounds" />
          </mxGeometry>
        </mxCell>
        <mxCell id="76" value="sport_type" style="shape=partialRectangle;connectable=0;fillColor=none;top=0;left=0;bottom=0;right=0;align=left;spacingLeft=2;overflow=hidden;fontSize=14;labelBackgroundColor=none;labelBorderColor=none;textShadow=0;" vertex="1" parent="74">
          <mxGeometry x="50" width="100" height="22" as="geometry">
            <mxRectangle width="100" height="22" as="alternateBounds" />
          </mxGeometry>
        </mxCell>
        <mxCell id="77" value="" style="shape=partialRectangle;connectable=0;fillColor=none;top=0;left=0;bottom=0;right=0;align=left;spacingLeft=2;overflow=hidden;fontSize=14;labelBackgroundColor=none;labelBorderColor=none;textShadow=0;" vertex="1" parent="74">
          <mxGeometry x="150" width="40" height="22" as="geometry">
            <mxRectangle width="40" height="22" as="alternateBounds" />
          </mxGeometry>
        </mxCell>
        <mxCell id="78" style="shape=tableRow;horizontal=0;startSize=0;swimlaneHead=0;swimlaneBody=0;fillColor=none;collapsible=0;dropTarget=0;points=[[0,0.5],[1,0.5]];portConstraint=eastwest;top=0;left=0;right=0;bottom=0;fontSize=14;labelBackgroundColor=none;labelBorderColor=none;textShadow=0;" vertex="1" parent="69">
          <mxGeometry y="74" width="190" height="22" as="geometry" />
        </mxCell>
        <mxCell id="79" value="string" style="shape=partialRectangle;connectable=0;fillColor=none;top=0;left=0;bottom=0;right=0;align=left;spacingLeft=2;overflow=hidden;fontSize=14;labelBackgroundColor=none;labelBorderColor=none;textShadow=0;" vertex="1" parent="78">
          <mxGeometry width="50" height="22" as="geometry">
            <mxRectangle width="50" height="22" as="alternateBounds" />
          </mxGeometry>
        </mxCell>
        <mxCell id="80" value="schedule" style="shape=partialRectangle;connectable=0;fillColor=none;top=0;left=0;bottom=0;right=0;align=left;spacingLeft=2;overflow=hidden;fontSize=14;labelBackgroundColor=none;labelBorderColor=none;textShadow=0;" vertex="1" parent="78">
          <mxGeometry x="50" width="100" height="22" as="geometry">
            <mxRectangle width="100" height="22" as="alternateBounds" />
          </mxGeometry>
        </mxCell>
        <mxCell id="81" value="" style="shape=partialRectangle;connectable=0;fillColor=none;top=0;left=0;bottom=0;right=0;align=left;spacingLeft=2;overflow=hidden;fontSize=14;labelBackgroundColor=none;labelBorderColor=none;textShadow=0;" vertex="1" parent="78">
          <mxGeometry x="150" width="40" height="22" as="geometry">
            <mxRectangle width="40" height="22" as="alternateBounds" />
          </mxGeometry>
        </mxCell>
        <mxCell id="82" style="shape=tableRow;horizontal=0;startSize=0;swimlaneHead=0;swimlaneBody=0;fillColor=none;collapsible=0;dropTarget=0;points=[[0,0.5],[1,0.5]];portConstraint=eastwest;top=0;left=0;right=0;bottom=0;fontSize=14;labelBackgroundColor=none;labelBorderColor=none;textShadow=0;" vertex="1" parent="69">
          <mxGeometry y="96" width="190" height="22" as="geometry" />
        </mxCell>
        <mxCell id="83" value="int" style="shape=partialRectangle;connectable=0;fillColor=none;top=0;left=0;bottom=0;right=0;align=left;spacingLeft=2;overflow=hidden;fontSize=14;labelBackgroundColor=none;labelBorderColor=none;textShadow=0;" vertex="1" parent="82">
          <mxGeometry width="50" height="22" as="geometry">
            <mxRectangle width="50" height="22" as="alternateBounds" />
          </mxGeometry>
        </mxCell>
        <mxCell id="84" value="max_members" style="shape=partialRectangle;connectable=0;fillColor=none;top=0;left=0;bottom=0;right=0;align=left;spacingLeft=2;overflow=hidden;fontSize=14;labelBackgroundColor=none;labelBorderColor=none;textShadow=0;" vertex="1" parent="82">
          <mxGeometry x="50" width="100" height="22" as="geometry">
            <mxRectangle width="100" height="22" as="alternateBounds" />
          </mxGeometry>
        </mxCell>
        <mxCell id="85" value="" style="shape=partialRectangle;connectable=0;fillColor=none;top=0;left=0;bottom=0;right=0;align=left;spacingLeft=2;overflow=hidden;fontSize=14;labelBackgroundColor=none;labelBorderColor=none;textShadow=0;" vertex="1" parent="82">
          <mxGeometry x="150" width="40" height="22" as="geometry">
            <mxRectangle width="40" height="22" as="alternateBounds" />
          </mxGeometry>
        </mxCell>
        <mxCell id="86" style="shape=tableRow;horizontal=0;startSize=0;swimlaneHead=0;swimlaneBody=0;fillColor=none;collapsible=0;dropTarget=0;points=[[0,0.5],[1,0.5]];portConstraint=eastwest;top=0;left=0;right=0;bottom=0;fontSize=14;labelBackgroundColor=none;labelBorderColor=none;textShadow=0;" vertex="1" parent="69">
          <mxGeometry y="118" width="190" height="32" as="geometry" />
        </mxCell>
        <mxCell id="87" value="int" style="shape=partialRectangle;connectable=0;fillColor=none;top=0;left=0;bottom=0;right=0;align=left;spacingLeft=2;overflow=hidden;fontSize=14;labelBackgroundColor=none;labelBorderColor=none;textShadow=0;" vertex="1" parent="86">
          <mxGeometry width="50" height="32" as="geometry">
            <mxRectangle width="50" height="32" as="alternateBounds" />
          </mxGeometry>
        </mxCell>
        <mxCell id="88" value="gym_id" style="shape=partialRectangle;connectable=0;fillColor=none;top=0;left=0;bottom=0;right=0;align=left;spacingLeft=2;overflow=hidden;fontSize=14;labelBackgroundColor=none;labelBorderColor=none;textShadow=0;fontStyle=1" vertex="1" parent="86">
          <mxGeometry x="50" width="100" height="32" as="geometry">
            <mxRectangle width="100" height="32" as="alternateBounds" />
          </mxGeometry>
        </mxCell>
        <mxCell id="89" value="FK" style="shape=partialRectangle;connectable=0;fillColor=none;top=0;left=0;bottom=0;right=0;align=left;spacingLeft=2;overflow=hidden;fontSize=14;labelBackgroundColor=none;labelBorderColor=none;textShadow=0;fontStyle=1" vertex="1" parent="86">
          <mxGeometry x="150" width="40" height="32" as="geometry">
            <mxRectangle width="40" height="32" as="alternateBounds" />
          </mxGeometry>
        </mxCell>
        <mxCell id="90" value="MEMBER_SESSION" style="shape=table;startSize=40;container=1;collapsible=0;childLayout=tableLayout;fixedRows=1;rowLines=1;fontStyle=1;align=center;resizeLast=1;fontSize=14;labelBackgroundColor=none;labelBorderColor=none;textShadow=0;" vertex="1" parent="1">
          <mxGeometry x="50" y="637" width="170" height="108" as="geometry" />
        </mxCell>
        <mxCell id="91" style="shape=tableRow;horizontal=0;startSize=0;swimlaneHead=0;swimlaneBody=0;fillColor=none;collapsible=0;dropTarget=0;points=[[0,0.5],[1,0.5]];portConstraint=eastwest;top=0;left=0;right=0;bottom=0;fontSize=14;labelBackgroundColor=none;labelBorderColor=none;textShadow=0;" vertex="1" parent="90">
          <mxGeometry y="40" width="170" height="30" as="geometry" />
        </mxCell>
        <mxCell id="92" value="int" style="shape=partialRectangle;connectable=0;fillColor=none;top=0;left=0;bottom=0;right=0;align=left;spacingLeft=2;overflow=hidden;fontSize=14;labelBackgroundColor=none;labelBorderColor=none;textShadow=0;" vertex="1" parent="91">
          <mxGeometry width="40" height="30" as="geometry">
            <mxRectangle width="40" height="30" as="alternateBounds" />
          </mxGeometry>
        </mxCell>
        <mxCell id="93" value="member_id" style="shape=partialRectangle;connectable=0;fillColor=none;top=0;left=0;bottom=0;right=0;align=left;spacingLeft=2;overflow=hidden;fontSize=14;labelBackgroundColor=none;labelBorderColor=none;textShadow=0;" vertex="1" parent="91">
          <mxGeometry x="40" width="90" height="30" as="geometry">
            <mxRectangle width="90" height="30" as="alternateBounds" />
          </mxGeometry>
        </mxCell>
        <mxCell id="94" value="FK" style="shape=partialRectangle;connectable=0;fillColor=none;top=0;left=0;bottom=0;right=0;align=left;spacingLeft=2;overflow=hidden;fontSize=14;labelBackgroundColor=none;labelBorderColor=none;textShadow=0;" vertex="1" parent="91">
          <mxGeometry x="130" width="40" height="30" as="geometry">
            <mxRectangle width="40" height="30" as="alternateBounds" />
          </mxGeometry>
        </mxCell>
        <mxCell id="95" style="shape=tableRow;horizontal=0;startSize=0;swimlaneHead=0;swimlaneBody=0;fillColor=none;collapsible=0;dropTarget=0;points=[[0,0.5],[1,0.5]];portConstraint=eastwest;top=0;left=0;right=0;bottom=0;fontSize=14;labelBackgroundColor=none;labelBorderColor=none;textShadow=0;" vertex="1" parent="90">
          <mxGeometry y="70" width="170" height="38" as="geometry" />
        </mxCell>
        <mxCell id="96" value="int" style="shape=partialRectangle;connectable=0;fillColor=none;top=0;left=0;bottom=0;right=0;align=left;spacingLeft=2;overflow=hidden;fontSize=14;labelBackgroundColor=none;labelBorderColor=none;textShadow=0;" vertex="1" parent="95">
          <mxGeometry width="40" height="38" as="geometry">
            <mxRectangle width="40" height="38" as="alternateBounds" />
          </mxGeometry>
        </mxCell>
        <mxCell id="97" value="session_id" style="shape=partialRectangle;connectable=0;fillColor=none;top=0;left=0;bottom=0;right=0;align=left;spacingLeft=2;overflow=hidden;fontSize=14;labelBackgroundColor=none;labelBorderColor=none;textShadow=0;" vertex="1" parent="95">
          <mxGeometry x="40" width="90" height="38" as="geometry">
            <mxRectangle width="90" height="38" as="alternateBounds" />
          </mxGeometry>
        </mxCell>
        <mxCell id="98" value="FK" style="shape=partialRectangle;connectable=0;fillColor=none;top=0;left=0;bottom=0;right=0;align=left;spacingLeft=2;overflow=hidden;fontSize=14;labelBackgroundColor=none;labelBorderColor=none;textShadow=0;" vertex="1" parent="95">
          <mxGeometry x="130" width="40" height="38" as="geometry">
            <mxRectangle width="40" height="38" as="alternateBounds" />
          </mxGeometry>
        </mxCell>
        <mxCell id="99" value="COACH_SESSION" style="shape=table;startSize=40;container=1;collapsible=0;childLayout=tableLayout;fixedRows=1;rowLines=1;fontStyle=1;align=center;resizeLast=1;fontSize=14;labelBackgroundColor=none;labelBorderColor=none;textShadow=0;" vertex="1" parent="1">
          <mxGeometry x="550" y="637" width="170" height="100" as="geometry" />
        </mxCell>
        <mxCell id="100" style="shape=tableRow;horizontal=0;startSize=0;swimlaneHead=0;swimlaneBody=0;fillColor=none;collapsible=0;dropTarget=0;points=[[0,0.5],[1,0.5]];portConstraint=eastwest;top=0;left=0;right=0;bottom=0;fontSize=14;labelBackgroundColor=none;labelBorderColor=none;textShadow=0;" vertex="1" parent="99">
          <mxGeometry y="40" width="170" height="30" as="geometry" />
        </mxCell>
        <mxCell id="101" value="int" style="shape=partialRectangle;connectable=0;fillColor=none;top=0;left=0;bottom=0;right=0;align=left;spacingLeft=2;overflow=hidden;fontSize=14;labelBackgroundColor=none;labelBorderColor=none;textShadow=0;" vertex="1" parent="100">
          <mxGeometry width="40" height="30" as="geometry">
            <mxRectangle width="40" height="30" as="alternateBounds" />
          </mxGeometry>
        </mxCell>
        <mxCell id="102" value="coach_id" style="shape=partialRectangle;connectable=0;fillColor=none;top=0;left=0;bottom=0;right=0;align=left;spacingLeft=2;overflow=hidden;fontSize=14;labelBackgroundColor=none;labelBorderColor=none;textShadow=0;" vertex="1" parent="100">
          <mxGeometry x="40" width="90" height="30" as="geometry">
            <mxRectangle width="90" height="30" as="alternateBounds" />
          </mxGeometry>
        </mxCell>
        <mxCell id="103" value="FK" style="shape=partialRectangle;connectable=0;fillColor=none;top=0;left=0;bottom=0;right=0;align=left;spacingLeft=2;overflow=hidden;fontSize=14;labelBackgroundColor=none;labelBorderColor=none;textShadow=0;" vertex="1" parent="100">
          <mxGeometry x="130" width="40" height="30" as="geometry">
            <mxRectangle width="40" height="30" as="alternateBounds" />
          </mxGeometry>
        </mxCell>
        <mxCell id="104" style="shape=tableRow;horizontal=0;startSize=0;swimlaneHead=0;swimlaneBody=0;fillColor=none;collapsible=0;dropTarget=0;points=[[0,0.5],[1,0.5]];portConstraint=eastwest;top=0;left=0;right=0;bottom=0;fontSize=14;labelBackgroundColor=none;labelBorderColor=none;textShadow=0;" vertex="1" parent="99">
          <mxGeometry y="70" width="170" height="30" as="geometry" />
        </mxCell>
        <mxCell id="105" value="int" style="shape=partialRectangle;connectable=0;fillColor=none;top=0;left=0;bottom=0;right=0;align=left;spacingLeft=2;overflow=hidden;fontSize=14;labelBackgroundColor=none;labelBorderColor=none;textShadow=0;" vertex="1" parent="104">
          <mxGeometry width="40" height="30" as="geometry">
            <mxRectangle width="40" height="30" as="alternateBounds" />
          </mxGeometry>
        </mxCell>
        <mxCell id="106" value="session_id" style="shape=partialRectangle;connectable=0;fillColor=none;top=0;left=0;bottom=0;right=0;align=left;spacingLeft=2;overflow=hidden;fontSize=14;labelBackgroundColor=none;labelBorderColor=none;textShadow=0;" vertex="1" parent="104">
          <mxGeometry x="40" width="90" height="30" as="geometry">
            <mxRectangle width="90" height="30" as="alternateBounds" />
          </mxGeometry>
        </mxCell>
        <mxCell id="107" value="FK" style="shape=partialRectangle;connectable=0;fillColor=none;top=0;left=0;bottom=0;right=0;align=left;spacingLeft=2;overflow=hidden;fontSize=14;labelBackgroundColor=none;labelBorderColor=none;textShadow=0;" vertex="1" parent="104">
          <mxGeometry x="130" width="40" height="30" as="geometry">
            <mxRectangle width="40" height="30" as="alternateBounds" />
          </mxGeometry>
        </mxCell>
        <mxCell id="108" value="BELONGS" style="curved=1;startArrow=ERmandOne;startSize=10;;endArrow=ERzeroToMany;endSize=10;;exitX=0;exitY=0.72;entryX=0.5;entryY=0;fontSize=14;fontStyle=1;labelBorderColor=default;textShadow=1;labelBackgroundColor=default;" edge="1" parent="1" source="2" target="19">
          <mxGeometry x="-0.1193" y="7" relative="1" as="geometry">
            <Array as="points">
              <mxPoint x="79" y="259" />
            </Array>
            <mxPoint x="-1" as="offset" />
          </mxGeometry>
        </mxCell>
        <mxCell id="109" value="HÔTES" style="curved=1;startArrow=ERmandOne;startSize=10;;endArrow=ERzeroToMany;endSize=10;;exitX=1;exitY=0.72;entryX=0.5;entryY=0;fontSize=14;fontStyle=1;labelBorderColor=default;textShadow=1;labelBackgroundColor=default;" edge="1" parent="1">
          <mxGeometry x="0.108" y="15" relative="1" as="geometry">
            <Array as="points">
              <mxPoint x="521" y="258" />
            </Array>
            <mxPoint x="500" y="198.08000000000004" as="sourcePoint" />
            <mxPoint x="685" y="316" as="targetPoint" />
            <mxPoint x="-1" as="offset" />
          </mxGeometry>
        </mxCell>
        <mxCell id="110" value="ATTENDS" style="curved=1;startArrow=ERmandOne;startSize=10;;endArrow=ERzeroToMany;endSize=10;;exitX=0.5;exitY=1;entryX=0.34;entryY=-0.01;fontSize=14;fontStyle=1;labelBorderColor=default;textShadow=1;labelBackgroundColor=default;" edge="1" parent="1" source="19" target="90">
          <mxGeometry x="0.1768" y="21" relative="1" as="geometry">
            <Array as="points">
              <mxPoint x="79" y="538" />
            </Array>
            <mxPoint as="offset" />
          </mxGeometry>
        </mxCell>
        <mxCell id="111" value="INCLUDES" style="curved=1;startArrow=ERmandOne;startSize=10;;endArrow=ERzeroToMany;endSize=10;;exitX=0;exitY=0.71;entryX=0.7;entryY=-0.01;fontSize=14;fontStyle=1;textShadow=1;labelBorderColor=default;labelBackgroundColor=default;" edge="1" parent="1">
          <mxGeometry x="-0.2759" y="8" relative="1" as="geometry">
            <Array as="points">
              <mxPoint x="190" y="538" />
            </Array>
            <mxPoint x="602" y="413.55999999999995" as="sourcePoint" />
            <mxPoint x="167.61764705882342" y="637" as="targetPoint" />
            <mxPoint as="offset" />
          </mxGeometry>
        </mxCell>
        <mxCell id="112" value="TRAINS" style="curved=1;startArrow=ERmandOne;startSize=10;;endArrow=ERzeroToMany;endSize=10;;exitX=0.253;exitY=1.069;entryX=0;entryY=0.17;fontSize=14;fontStyle=1;labelBorderColor=default;textShadow=1;labelBackgroundColor=default;exitDx=0;exitDy=0;exitPerimeter=0;" edge="1" parent="1" source="65">
          <mxGeometry x="0.1341" y="10" relative="1" as="geometry">
            <Array as="points">
              <mxPoint x="297" y="538" />
            </Array>
            <mxPoint x="313" y="453" as="sourcePoint" />
            <mxPoint x="550" y="648.73" as="targetPoint" />
            <mxPoint as="offset" />
          </mxGeometry>
        </mxCell>
        <mxCell id="113" value="MANAGED_BY" style="curved=1;startArrow=ERmandOne;startSize=10;;endArrow=ERzeroToMany;endSize=10;;entryX=0.5;entryY=-0.01;fontSize=14;fontStyle=1;labelBorderColor=default;textShadow=1;labelBackgroundColor=default;exitX=0.5;exitY=1;exitDx=0;exitDy=0;" edge="1" parent="1" source="69">
          <mxGeometry x="-0.241" y="32" relative="1" as="geometry">
            <Array as="points">
              <mxPoint x="530" y="538" />
            </Array>
            <mxPoint x="680" y="527" as="sourcePoint" />
            <mxPoint x="616" y="637" as="targetPoint" />
            <mxPoint x="1" as="offset" />
          </mxGeometry>
        </mxCell>
      </root>
    </mxGraphModel>
  </diagram>
</mxfile>
